REM DIRINDEX 1\3,1\2\4,1\2\5,1\2\6
REM DIRNAME cjc137,folder01,folder02,folder03,folder04,folder05
TITLE ""
FILE "066.mp3" MP3
  TRACK 01 AUDIO
    TITLE "4:cjc137_2696"
    INDEX 01 00:00:00
  TRACK 02 AUDIO
    TITLE "0:"
    INDEX 01 00:01:03
  TRACK 03 AUDIO
    TITLE "6:cjc137_2697"
    INDEX 01 00:01:13
  TRACK 04 AUDIO
    TITLE "0:"
    INDEX 01 00:02:10
  TRACK 05 AUDIO
    TITLE "5:cjc137_2698"
    INDEX 01 00:02:18
  TRACK 06 AUDIO
    TITLE "0:"
    INDEX 01 00:03:19
  TRACK 07 AUDIO
    TITLE "4:cjc137_2699"
    INDEX 01 00:04:31
  TRACK 08 AUDIO
    TITLE "0:"
    INDEX 01 00:05:30
  TRACK 09 AUDIO
    TITLE "6:cjc137_2700"
    INDEX 01 00:05:42
  TRACK 10 AUDIO
    TITLE "0:"
    INDEX 01 00:06:24
  TRACK 11 AUDIO
    TITLE "5:cjc137_2701"
    INDEX 01 00:06:33
  TRACK 12 AUDIO
    TITLE "0:"
    INDEX 01 00:07:33
  TRACK 13 AUDIO
    TITLE "4:cjc137_2702"
    INDEX 01 00:08:44
  TRACK 14 AUDIO
    TITLE "0:"
    INDEX 01 00:09:55
  TRACK 15 AUDIO
    TITLE "6:cjc137_2703"
    INDEX 01 00:09:63
  TRACK 16 AUDIO
    TITLE "0:"
    INDEX 01 00:10:45
  TRACK 17 AUDIO
    TITLE "5:cjc137_2704"
    INDEX 01 00:10:53
  TRACK 18 AUDIO
    TITLE "0:"
    INDEX 01 00:11:64
  TRACK 19 AUDIO
    TITLE "4:cjc137_2705"
    INDEX 01 00:12:73
  TRACK 20 AUDIO
    TITLE "0:"
    INDEX 01 00:14:07
  TRACK 21 AUDIO
    TITLE "6:cjc137_2706"
    INDEX 01 00:14:17
  TRACK 22 AUDIO
    TITLE "0:"
    INDEX 01 00:15:23
  TRACK 23 AUDIO
    TITLE "5:cjc137_2707"
    INDEX 01 00:15:28
  TRACK 24 AUDIO
    TITLE "0:"
    INDEX 01 00:16:38
  TRACK 25 AUDIO
    TITLE "4:cjc137_2708"
    INDEX 01 00:17:49
  TRACK 26 AUDIO
    TITLE "0:"
    INDEX 01 00:18:70
  TRACK 27 AUDIO
    TITLE "6:cjc137_2709"
    INDEX 01 00:19:03
  TRACK 28 AUDIO
    TITLE "0:"
    INDEX 01 00:20:26
  TRACK 29 AUDIO
    TITLE "5:cjc137_2710"
    INDEX 01 00:20:32
  TRACK 30 AUDIO
    TITLE "0:"
    INDEX 01 00:21:53
  TRACK 31 AUDIO
    TITLE "4:cjc137_2711"
    INDEX 01 00:22:62
  TRACK 32 AUDIO
    TITLE "0:"
    INDEX 01 00:23:65
  TRACK 33 AUDIO
    TITLE "6:cjc137_2712"
    INDEX 01 00:23:73
  TRACK 34 AUDIO
    TITLE "0:"
    INDEX 01 00:24:59
  TRACK 35 AUDIO
    TITLE "5:cjc137_2713"
    INDEX 01 00:24:65
  TRACK 36 AUDIO
    TITLE "0:"
    INDEX 01 00:25:68
  TRACK 37 AUDIO
    TITLE "4:cjc137_2714"
    INDEX 01 00:27:04
  TRACK 38 AUDIO
    TITLE "0:"
    INDEX 01 00:28:08
  TRACK 39 AUDIO
    TITLE "6:cjc137_2715"
    INDEX 01 00:28:15
  TRACK 40 AUDIO
    TITLE "0:"
    INDEX 01 00:29:05
  TRACK 41 AUDIO
    TITLE "5:cjc137_2716"
    INDEX 01 00:29:15
  TRACK 42 AUDIO
    TITLE "0:"
    INDEX 01 00:30:20
  TRACK 43 AUDIO
    TITLE "4:cjc137_2717"
    INDEX 01 00:31:27
  TRACK 44 AUDIO
    TITLE "0:"
    INDEX 01 00:32:39
  TRACK 45 AUDIO
    TITLE "6:cjc137_2718"
    INDEX 01 00:32:48
  TRACK 46 AUDIO
    TITLE "0:"
    INDEX 01 00:33:62
  TRACK 47 AUDIO
    TITLE "5:cjc137_2719"
    INDEX 01 00:33:69
  TRACK 48 AUDIO
    TITLE "0:"
    INDEX 01 00:35:06
  TRACK 49 AUDIO
    TITLE "4:cjc137_2720"
    INDEX 01 00:36:15
  TRACK 50 AUDIO
    TITLE "0:"
    INDEX 01 00:37:26
  TRACK 51 AUDIO
    TITLE "6:cjc137_2721"
    INDEX 01 00:37:34
  TRACK 52 AUDIO
    TITLE "0:"
    INDEX 01 00:38:49
  TRACK 53 AUDIO
    TITLE "5:cjc137_2722"
    INDEX 01 00:38:55
  TRACK 54 AUDIO
    TITLE "0:"
    INDEX 01 00:39:66
  TRACK 55 AUDIO
    TITLE "4:cjc137_2723"
    INDEX 01 00:40:73
  TRACK 56 AUDIO
    TITLE "0:"
    INDEX 01 00:42:02
  TRACK 57 AUDIO
    TITLE "6:cjc137_2724"
    INDEX 01 00:42:14
  TRACK 58 AUDIO
    TITLE "0:"
    INDEX 01 00:45:02
  TRACK 59 AUDIO
    TITLE "5:cjc137_2725"
    INDEX 01 00:45:10
  TRACK 60 AUDIO
    TITLE "0:"
    INDEX 01 00:46:13
  TRACK 61 AUDIO
    TITLE "4:cjc137_2726"
    INDEX 01 00:47:25
  TRACK 62 AUDIO
    TITLE "0:"
    INDEX 01 00:48:59
  TRACK 63 AUDIO
    TITLE "6:cjc137_2727"
    INDEX 01 00:48:67
  TRACK 64 AUDIO
    TITLE "0:"
    INDEX 01 00:50:11
  TRACK 65 AUDIO
    TITLE "5:cjc137_2728"
    INDEX 01 00:50:19
  TRACK 66 AUDIO
    TITLE "0:"
    INDEX 01 00:51:54
  TRACK 67 AUDIO
    TITLE "4:cjc137_2729"
    INDEX 01 00:52:63
  TRACK 68 AUDIO
    TITLE "0:"
    INDEX 01 00:53:62
  TRACK 69 AUDIO
    TITLE "6:cjc137_2730"
    INDEX 01 00:53:70
  TRACK 70 AUDIO
    TITLE "0:"
    INDEX 01 00:55:08
  TRACK 71 AUDIO
    TITLE "5:cjc137_2731"
    INDEX 01 00:55:18
  TRACK 72 AUDIO
    TITLE "0:"
    INDEX 01 00:56:16
  TRACK 73 AUDIO
    TITLE "4:cjc137_2732"
    INDEX 01 00:57:25
  TRACK 74 AUDIO
    TITLE "0:"
    INDEX 01 00:58:26
  TRACK 75 AUDIO
    TITLE "6:cjc137_2733"
    INDEX 01 00:58:34
  TRACK 76 AUDIO
    TITLE "0:"
    INDEX 01 00:59:30
  TRACK 77 AUDIO
    TITLE "5:cjc137_2734"
    INDEX 01 00:59:39
  TRACK 78 AUDIO
    TITLE "0:"
    INDEX 01 01:00:41
  TRACK 79 AUDIO
    TITLE "4:cjc137_2735"
    INDEX 01 01:01:48
  TRACK 80 AUDIO
    TITLE "0:"
    INDEX 01 01:02:69
  TRACK 81 AUDIO
    TITLE "6:cjc137_2736"
    INDEX 01 01:02:71
  TRACK 82 AUDIO
    TITLE "0:"
    INDEX 01 01:04:15
  TRACK 83 AUDIO
    TITLE "5:cjc137_2737"
    INDEX 01 01:04:21
  TRACK 84 AUDIO
    TITLE "0:"
    INDEX 01 01:05:40
